{
	"asset":{
		"generator":"Khronos glTF Blender I/O v3.5.30",
		"version":"2.0"
	},
	"scene":0,
	"scenes":[
		{
			"name":"Scene",
			"nodes":[
				0
			]
		}
	],
	"nodes":[
		{
			"mesh":0,
			"name":"RustedSphere"
		}
	],
	"materials":[
		{
			"doubleSided":true,
			"name":"Sphere",
			"normalTexture":{
				"index":0
			},
			"pbrMetallicRoughness":{
				"baseColorTexture":{
					"index":1
				},
				"metallicRoughnessTexture":{
					"index":2
				}
			}
		}
	],
	"meshes":[
		{
			"name":"Icosphere",
			"primitives":[
				{
					"attributes":{
						"POSITION":0,
						"TEXCOORD_0":1,
						"NORMAL":2,
						"TANGENT":3
					},
					"indices":4,
					"material":0
				}
			]
		}
	],
	"textures":[
		{
			"sampler":0,
			"source":0
		},
		{
			"sampler":0,
			"source":1
		},
		{
			"sampler":0,
			"source":2
		}
	],
	"images":[
		{
			"mimeType":"image/png",
			"name":"rustediron2_normal",
			"uri":"textures/rustediron2_normal.png"
		},
		{
			"mimeType":"image/png",
			"name":"rustediron2_basecolor",
			"uri":"textures/rustediron2_basecolor.png"
		},
		{
			"mimeType":"image/png",
			"name":"rustediron2_metallic-rustediron2_roughness",
			"uri":"textures/rustediron2_metallic-rustediron2_roughness.png"
		}
	],
	"accessors":[
		{
			"bufferView":0,
			"componentType":5126,
			"count":4017,
			"max":[
				0.9945977330207825,
				0.9966703653335571,
				0.9950332641601562
			],
			"min":[
				-0.9945977926254272,
				-0.9966703653335571,
				-0.9950332045555115
			],
			"type":"VEC3"
		},
		{
			"bufferView":1,
			"componentType":5126,
			"count":4017,
			"type":"VEC2"
		},
		{
			"bufferView":2,
			"componentType":5126,
			"count":4017,
			"type":"VEC3"
		},
		{
			"bufferView":3,
			"componentType":5126,
			"count":4017,
			"type":"VEC4"
		},
		{
			"bufferView":4,
			"componentType":5123,
			"count":23040,
			"type":"SCALAR"
		}
	],
	"bufferViews":[
		{
			"buffer":0,
			"byteLength":48204,
			"byteOffset":0,
			"target":34962
		},
		{
			"buffer":0,
			"byteLength":32136,
			"byteOffset":48204,
			"target":34962
		},
		{
			"buffer":0,
			"byteLength":48204,
			"byteOffset":80340,
			"target":34962
		},
		{
			"buffer":0,
			"byteLength":64272,
			"byteOffset":128544,
			"target":34962
		},
		{
			"buffer":0,
			"byteLength":46080,
			"byteOffset":192816,
			"target":34963
		}
	],
	"samplers":[
		{
			"magFilter":9729,
			"minFilter":9987
		}
	],
	"buffers":[
		{
			"byteLength":238896,
			"uri":"rusted_sphere.bin"
		}
	]
}
