# Blender 3.6.2
# www.blender.org
mtllib particle.mtl
o Sphere
v 0.000000 0.000000 -1.000000
v 0.000000 -0.707107 -0.707107
v 0.707107 0.707107 0.000000
v 1.000000 -0.000000 0.000000
v 0.707107 -0.707107 0.000000
v -0.000000 0.707107 0.707107
v -0.000000 -0.000000 1.000000
v -0.000000 -0.707107 0.707107
v 0.000000 -1.000000 0.000000
v 0.000000 1.000000 0.000000
v -0.707107 0.707106 -0.000000
v -1.000000 -0.000000 -0.000000
v -0.707107 -0.707107 -0.000000
v 0.000000 0.707106 -0.707107
vn 0.3574 -0.8629 -0.3574
vn 0.6786 0.2811 -0.6786
vn 0.6786 -0.2811 -0.6786
vn 0.3574 0.8629 -0.3574
vn 0.6786 -0.2811 0.6786
vn 0.3574 0.8629 0.3574
vn 0.3574 -0.8629 0.3574
vn 0.6786 0.2811 0.6786
vn -0.6786 0.2811 0.6786
vn -0.6786 -0.2811 0.6786
vn -0.3574 0.8629 0.3574
vn -0.3574 -0.8629 0.3574
vn -0.3574 -0.8629 -0.3574
vn -0.6786 0.2811 -0.6786
vn -0.6786 -0.2811 -0.6786
vn -0.3574 0.8629 -0.3574
vt 0.625000 0.000000
vt 0.750000 0.250000
vt 0.500000 0.250000
vt 0.750000 0.750000
vt 0.500000 0.500000
vt 0.750000 0.500000
vt 0.625000 1.000000
vt 0.500000 0.750000
vt 0.250000 0.500000
vt 0.250000 0.250000
vt 0.375000 1.000000
vt 0.250000 0.750000
vt 0.375000 0.000000
vt 0.000000 0.500000
vt 0.000000 0.250000
vt 0.125000 1.000000
vt 0.000000 0.750000
vt 0.125000 0.000000
vt 0.875000 0.000000
vt 1.000000 0.250000
vt 1.000000 0.750000
vt 1.000000 0.500000
vt 0.875000 1.000000
s 0
usemtl Material
f 9/1/1 2/2/1 5/3/1
f 14/4/2 4/5/2 1/6/2
f 2/2/3 4/5/3 5/3/3
f 14/4/4 10/7/4 3/8/4
f 5/3/5 7/9/5 8/10/5
f 3/8/6 10/11/6 6/12/6
f 9/13/7 5/3/7 8/10/7
f 3/8/8 7/9/8 4/5/8
f 6/12/9 12/14/9 7/9/9
f 7/9/10 13/15/10 8/10/10
f 6/12/11 10/16/11 11/17/11
f 9/18/12 8/10/12 13/15/12
f 9/19/13 13/20/13 2/2/13
f 11/21/14 1/6/14 12/22/14
f 12/22/15 2/2/15 13/20/15
f 11/21/16 10/23/16 14/4/16
f 14/4/2 3/8/2 4/5/2
f 2/2/3 1/6/3 4/5/3
f 5/3/5 4/5/5 7/9/5
f 3/8/8 6/12/8 7/9/8
f 6/12/9 11/17/9 12/14/9
f 7/9/10 12/14/10 13/15/10
f 11/21/14 14/4/14 1/6/14
f 12/22/15 1/6/15 2/2/15
